<svg width="24" height="35" viewBox="0 0 24 35" fill="none" xmlns="http://www.w3.org/2000/svg">
<path d="M24 9.74388V0.649536H0V9.74388H5.33186V25.333H0V34.4273H24V25.333H18.6681V9.74388H24ZM18.6681 26.6328H22.6704V33.1275H1.33407V26.6328H5.33629C6.07202 26.6328 6.67036 26.0498 6.67036 25.333V9.74388C6.67036 9.02705 6.07202 8.44407 5.33629 8.44407H1.33407V1.94935H22.6704V8.44407H18.6681C17.9324 8.44407 17.3341 9.02705 17.3341 9.74388V25.333C17.3341 26.0498 17.9324 26.6328 18.6681 26.6328Z" fill="#13294B"/>
<path d="M18.6682 8.44407H22.6704V1.94934H1.33411V8.44407H5.33632C6.07206 8.44407 6.67039 9.02704 6.67039 9.74388V25.333C6.67039 26.0498 6.07206 26.6328 5.33632 26.6328H1.33411V33.1275H22.6704V26.6328H18.6682C17.9324 26.6328 17.3341 26.0498 17.3341 25.333V9.74388C17.3341 9.02704 17.9324 8.44407 18.6682 8.44407Z" fill="#FF5F05"/>
</svg>
