<svg width="157" height="40" viewBox="0 0 157 40" fill="none" xmlns="http://www.w3.org/2000/svg">
<path d="M28.27 10.5388V0.0384521H0.199951V10.5388H6.43601V28.5381H0.199951V39.0385H28.27V28.5381H22.0339V10.5388H28.27ZM22.0339 30.0388H26.7097V37.5377H1.76026V30.0388H6.44119C7.3017 30.0388 8.00151 29.3657 8.00151 28.5381V10.5388C8.00151 9.71117 7.3017 9.03807 6.44119 9.03807H1.76026V1.53922H26.7149V9.03807H22.0391C21.1786 9.03807 20.4788 9.71117 20.4788 10.5388V28.5381C20.4736 29.3657 21.1734 30.0388 22.0339 30.0388Z" fill="#13294B"/>
<path d="M22.0339 9.03803H26.7097V1.53918H1.76025V9.03803H6.44119C7.30169 9.03803 8.0015 9.71113 8.0015 10.5388V28.538C8.0015 29.3657 7.30169 30.0388 6.44119 30.0388H1.76025V37.5376H26.7149V30.0388H22.0391C21.1786 30.0388 20.4788 29.3657 20.4788 28.538V10.5388C20.4736 9.71113 21.1734 9.03803 22.0339 9.03803Z" fill="#FF5F05"/>
<path d="M50.2854 28.7574V12.588H53.9866V28.7574H50.2854Z" fill="#13294B"/>
<path d="M58.3824 28.7574V12.588H62.0836V25.5265H70.4658V28.7624H58.3824V28.7574Z" fill="#13294B"/>
<path d="M73.1716 28.7574V12.588H76.8728V25.5265H85.255V28.7624H73.1716V28.7574Z" fill="#13294B"/>
<path d="M88.0439 28.7574V12.588H91.7451V28.7574H88.0439Z" fill="#13294B"/>
<path d="M107.929 28.7574L99.7851 18.4764V28.7574H96.1357V12.588H99.5466L107.426 22.5449V12.588H111.075V28.7574H107.929Z" fill="#13294B"/>
<path d="M123.485 29.0367C118.296 29.0367 114.574 25.3172 114.574 20.7201V20.6753C114.574 16.0782 118.343 12.3138 123.532 12.3138C128.721 12.3138 132.443 16.0334 132.443 20.6304V20.6753C132.443 25.2673 128.674 29.0367 123.485 29.0367ZM128.576 20.6703C128.576 17.8981 126.461 15.5896 123.485 15.5896C120.505 15.5896 118.441 17.8532 118.441 20.6254V20.6703C118.441 23.4425 120.556 25.7509 123.532 25.7509C126.513 25.7509 128.576 23.4873 128.576 20.7151V20.6703Z" fill="#13294B"/>
<path d="M136.025 28.7574V12.588H139.726V28.7574H136.025Z" fill="#13294B"/>
<path d="M150.031 28.9868C147.486 28.9868 144.915 28.1342 142.898 26.3991L145.086 23.8812C146.6 25.0829 148.186 25.8457 150.104 25.8457C151.618 25.8457 152.53 25.2673 152.53 24.32V24.2751C152.53 23.3727 151.954 22.914 149.145 22.2209C145.76 21.3883 143.572 20.4858 143.572 17.2749V17.23C143.572 14.2983 146.024 12.3538 149.456 12.3538C151.908 12.3538 153.997 13.0917 155.702 14.408L153.779 17.0854C152.291 16.0932 150.824 15.4899 149.409 15.4899C147.994 15.4899 147.248 16.1132 147.248 16.9009V16.9458C147.248 18.0078 147.968 18.3568 150.876 19.0698C154.287 19.9224 156.21 21.1041 156.21 23.9211V23.966C156.2 27.1869 153.655 28.9868 150.031 28.9868Z" fill="#13294B"/>
<path d="M52.561 7.99114C50.7986 7.99114 49.7203 7.04381 49.7203 5.18904V1.57922H51.1666V5.14915C51.1666 6.17626 51.7005 6.70975 52.5818 6.70975C53.463 6.70975 53.9969 6.1962 53.9969 5.19403V1.57922H55.4432V5.13918C55.438 7.0488 54.3235 7.99114 52.561 7.99114Z" fill="#13294B"/>
<path d="M64.183 7.89142L61.0054 3.87774V7.89142H59.5798V1.57922H60.9121L63.986 5.46327V1.57922H65.4116V7.89142H64.183Z" fill="#13294B"/>
<path d="M69.6519 7.89142V1.57922H71.0981V7.89142H69.6519Z" fill="#13294B"/>
<path d="M78.5835 7.93629H77.3083L74.6542 1.57922H76.2456L77.9614 6.02668L79.6772 1.57922H81.2324L78.5835 7.93629Z" fill="#13294B"/>
<path d="M84.7833 7.89142V1.57922H89.7338V2.81574H86.2192V4.09712H89.3139V5.33363H86.2192V6.65989H89.7805V7.89641H84.7833V7.89142Z" fill="#13294B"/>
<path d="M97.7272 7.89142L96.3224 5.87212H95.1871V7.89142H93.7408V1.57922H96.7422C98.2922 1.57922 99.2149 2.36202 99.2149 3.66335V3.6783C99.2149 4.69543 98.6447 5.33862 97.8101 5.63279L99.4119 7.88643H97.7272V7.89142ZM97.7531 3.73315C97.7531 3.13982 97.3228 2.83069 96.6178 2.83069H95.1819V4.64059H96.6438C97.3487 4.64059 97.7479 4.2816 97.7479 3.74811V3.73315H97.7531Z" fill="#13294B"/>
<path d="M105.415 7.98117C104.419 7.98117 103.419 7.64712 102.631 6.96903L103.481 5.9868C104.072 6.45548 104.689 6.75463 105.441 6.75463C106.032 6.75463 106.389 6.53026 106.389 6.16131V6.14136C106.389 5.79235 106.166 5.60787 105.067 5.33863C103.745 5.01454 102.89 4.66054 102.89 3.40907V3.38912C102.89 2.24236 103.844 1.4845 105.187 1.4845C106.14 1.4845 106.959 1.77368 107.623 2.28723L106.871 3.33428C106.291 2.94538 105.721 2.71104 105.166 2.71104C104.611 2.71104 104.321 2.95535 104.321 3.25949V3.27943C104.321 3.69327 104.601 3.82789 105.736 4.1071C107.068 4.44116 107.815 4.89986 107.815 6.00176V6.0217C107.825 7.27816 106.83 7.98117 105.415 7.98117Z" fill="#13294B"/>
<path d="M111.718 7.89142V1.57922H113.164V7.89142H111.718Z" fill="#13294B"/>
<path d="M120.209 2.85562V7.88643H118.768V2.85562H116.772V1.57922H122.21V2.86061H120.209V2.85562Z" fill="#13294B"/>
<path d="M129.415 5.37352V7.89142H127.974V5.40344L125.45 1.57922H127.14L128.705 4.11208L130.297 1.57922H131.94L129.415 5.37352Z" fill="#13294B"/>
<path d="M143.723 7.99607C141.696 7.99607 140.244 6.54517 140.244 4.75023V4.73527C140.244 2.94033 141.716 1.46948 143.743 1.46948C145.77 1.46948 147.222 2.92039 147.222 4.71533V4.73527C147.216 6.53021 145.744 7.99607 143.723 7.99607ZM145.708 4.73527C145.708 3.65332 144.884 2.75087 143.723 2.75087C142.561 2.75087 141.753 3.63338 141.753 4.71533V4.73527C141.753 5.81722 142.577 6.71967 143.738 6.71967C144.899 6.71967 145.708 5.83716 145.708 4.75521V4.73527Z" fill="#13294B"/>
<path d="M152.53 2.84067V4.18188H155.661V5.44332H152.53V7.88643H151.083V1.57922H156.081V2.84067H152.53Z" fill="#13294B"/>
<path d="M50.275 35.7877V33.4592H51.2081V35.7627C51.2081 36.4259 51.5554 36.7699 52.1204 36.7699C52.6907 36.7699 53.0328 36.4358 53.0328 35.7926V33.4592H53.9659V35.7577C53.9659 36.9893 53.2453 37.5976 52.1101 37.5976C50.9696 37.5976 50.275 36.9893 50.275 35.7877Z" fill="#13294B"/>
<path d="M57.4338 33.4592H59.3726C59.9117 33.4592 60.3264 33.6038 60.6063 33.8731C60.8447 34.1024 60.9692 34.4215 60.9692 34.8054V34.8154C60.9692 35.4735 60.6011 35.8874 60.062 36.0768L61.0988 37.5327H60.0102L59.103 36.2314H58.3721V37.5327H57.439V33.4592H57.4338ZM59.3104 35.4386C59.7665 35.4386 60.0257 35.2043 60.0257 34.8603V34.8503C60.0257 34.4664 59.7458 34.267 59.2948 34.267H58.3669V35.4386H59.3104Z" fill="#13294B"/>
<path d="M64.3282 33.4592H66.2929C66.775 33.4592 67.1586 33.5889 67.4022 33.8182C67.594 34.0027 67.6925 34.232 67.6925 34.5113V34.5212C67.6925 34.9799 67.4385 35.2392 67.1378 35.3988C67.6303 35.5783 67.931 35.8525 67.931 36.4009V36.4109C67.931 37.1538 67.3037 37.5278 66.3447 37.5278H64.3282V33.4592ZM66.7646 34.6658C66.7646 34.3966 66.5469 34.247 66.1529 34.247H65.2354V35.1096H66.0959C66.5054 35.1096 66.7698 34.9799 66.7698 34.6808V34.6658H66.7646ZM66.3084 35.8525H65.2302V36.7499H66.3395C66.7491 36.7499 66.9979 36.6103 66.9979 36.3062V36.2962C67.0031 36.022 66.7905 35.8525 66.3084 35.8525Z" fill="#13294B"/>
<path d="M72.6636 33.4343H73.5241L75.3384 37.5378H74.3639L73.9751 36.6253H72.1815L71.7927 37.5378H70.8441L72.6636 33.4343ZM73.6433 35.8326L73.0783 34.5113L72.5133 35.8326H73.6433Z" fill="#13294B"/>
<path d="M78.511 33.4592H79.3715L81.3569 35.9672V33.4592H82.2744V37.5327H81.4813L79.4285 34.945V37.5327H78.511V33.4592Z" fill="#13294B"/>
<path d="M87.2559 33.4343H88.1164L89.9307 37.5378H88.9562L88.5674 36.6253H86.7738L86.385 37.5378H85.4364L87.2559 33.4343ZM88.2408 35.8326L87.6758 34.5113L87.1108 35.8326H88.2408Z" fill="#13294B"/>
<path d="M92.7766 35.309H94.6428V36.1566H92.7766V35.309Z" fill="#13294B"/>
<path d="M97.5405 35.5084V35.4985C97.5405 34.3417 98.4477 33.3894 99.7488 33.3894C100.547 33.3894 101.024 33.6437 101.418 34.0176L100.827 34.6758C100.5 34.3916 100.169 34.2171 99.7436 34.2171C99.0283 34.2171 98.5151 34.7855 98.5151 35.4835V35.4935C98.5151 36.1915 99.0179 36.7749 99.7436 36.7749C100.226 36.7749 100.526 36.5904 100.858 36.2962L101.449 36.8746C101.014 37.3233 100.532 37.6025 99.7125 37.6025C98.4632 37.6075 97.5405 36.6801 97.5405 35.5084Z" fill="#13294B"/>
<path d="M104.71 33.4592H105.643V35.0697H107.364V33.4592H108.297V37.5327H107.364V35.8974H105.643V37.5327H104.71V33.4592Z" fill="#13294B"/>
<path d="M113.278 33.4343H114.139L115.953 37.5378H114.979L114.59 36.6253H112.796L112.407 37.5378H111.459L113.278 33.4343ZM114.258 35.8326L113.693 34.5113L113.128 35.8326H114.258Z" fill="#13294B"/>
<path d="M119.12 33.4592H120.126L121.241 35.1844L122.355 33.4592H123.361V37.5327H122.433V34.8752L121.241 36.6153H121.215L120.033 34.8902V37.5327H119.12V33.4592Z" fill="#13294B"/>
<path d="M126.891 33.4592H128.622C129.633 33.4592 130.245 34.0376 130.245 34.8702V34.8802C130.245 35.8226 129.483 36.3112 128.534 36.3112H127.824V37.5327H126.891V33.4592ZM128.56 35.5184C129.027 35.5184 129.296 35.2492 129.296 34.9002V34.8902C129.296 34.4863 129.006 34.2719 128.539 34.2719H127.819V35.5184H128.56Z" fill="#13294B"/>
<path d="M134.48 33.4343H135.341L137.155 37.5378H136.18L135.792 36.6253H133.998L133.609 37.5378H132.661L134.48 33.4343ZM135.46 35.8326L134.895 34.5113L134.33 35.8326H135.46Z" fill="#13294B"/>
<path d="M140.364 33.4592H141.297V37.5327H140.364V33.4592Z" fill="#13294B"/>
<path d="M144.687 35.5084V35.4985C144.687 34.3417 145.625 33.3894 146.905 33.3894C147.667 33.3894 148.129 33.5888 148.569 33.9478L147.984 34.6309C147.657 34.3666 147.367 34.2171 146.874 34.2171C146.195 34.2171 145.656 34.7954 145.656 35.4835V35.4935C145.656 36.2364 146.19 36.7848 146.937 36.7848C147.273 36.7848 147.579 36.7051 147.813 36.5405V35.9572H146.874V35.1893H148.715V36.9593C148.279 37.3133 147.678 37.6075 146.905 37.6075C145.594 37.6075 144.687 36.715 144.687 35.5084Z" fill="#13294B"/>
<path d="M152.136 33.4592H152.996L154.982 35.9672V33.4592H155.899V37.5327H155.106L153.053 34.945V37.5327H152.136V33.4592Z" fill="#13294B"/>
</svg>
